Coordinates
version=1
nRows=22
nColumns=24
inDegrees=yes

Units are S.I. units (second, meters, Newtons, ...)
Angles are in degrees.

endheader
time	pelvis_tilt	pelvis_list	pelvis_rotation	pelvis_tx	pelvis_ty	pelvis_tz	hip_flexion_r	hip_adduction_r	hip_rotation_r	knee_angle_r	ankle_angle_r	subtalar_angle_r	mtp_angle_r	hip_flexion_l	hip_adduction_l	hip_rotation_l	knee_angle_l	ankle_angle_l	subtalar_angle_l	mtp_angle_l	lumbar_extension	lumbar_bending	lumbar_rotation
      0.48800000	     -2.16881958	     -0.64758270	      6.89950320	     -0.79707037	      1.02532047	      0.31893913	     19.85220950	      1.23029851	    -10.93550153	      5.71761836	     -2.96137557	     -1.21112722	      5.33136051	    -11.48996334	      2.66659948	     10.58254385	     -8.34427510	     10.56026021	    -10.11015071	     -8.22664721	     -5.75282319	     -2.18813688	     -6.03669558
      0.49216667	     -2.19141741	     -0.71678922	      6.94761527	     -0.79126023	      1.02467943	      0.31903197	     19.94441301	      1.34800279	    -10.77587559	      5.35404792	     -3.03772780	     -1.36553891	      5.39127661	    -11.47055942	      2.59053621	     10.54578598	     -9.02192176	     10.70904830	     -9.98039429	     -8.22860372	     -5.67033512	     -2.07387790	     -6.01118051
      0.49633333	     -2.19541157	     -0.79352957	      6.98256887	     -0.78541296	      1.02408168	      0.31913858	     20.00921871	      1.47965828	    -10.51891300	      4.95418490	     -3.26812702	     -1.76841325	      5.48658976	    -11.44593295	      2.50412906	     10.41443770	     -9.75077487	     10.87006063	     -9.73375918	     -8.20449817	     -5.60887392	     -1.95097860	     -5.98572927
      0.50050000	     -2.15903801	     -0.87341900	      7.01354889	     -0.77953309	      1.02357356	      0.31925457	     20.03413307	      1.62030046	    -10.25000702	      4.49842165	     -3.57518901	     -2.26544400	      5.64783293	    -11.43853911	      2.41073470	     10.25303351	    -10.52956256	     10.98859630	     -9.47263278	     -8.13446122	     -5.59862400	     -1.83894242	     -5.95813201
      0.50466667	     -2.15590700	     -0.96825775	      7.05202563	     -0.77361252	      1.02305536	      0.31932327	     20.09773729	      1.76305940	     -9.96827620	      3.98483409	     -3.89828467	     -2.78043745	      5.79071052	    -11.37698742	      2.31257448	     10.14428474	    -11.34961992	     11.08521915	     -9.28582869	     -8.05018363	     -5.52598320	     -1.66969116	     -5.93889786
      0.50883333	     -2.08403594	     -1.06335882	      7.08845544	     -0.76767328	      1.02267378	      0.31941490	     20.08564279	      1.91762919	     -9.65829047	      3.43948271	     -4.33044887	     -3.43389183	      5.99041221	    -11.35682438	      2.19882220	      9.93906711	    -12.22212473	     11.17383185	     -8.98731341	     -7.90684068	     -5.54460117	     -1.53097470	     -5.91576191
      0.51300000	     -2.08567033	     -1.18108840	      7.12231784	     -0.76166957	      1.02220396	      0.31947598	     20.15952259	      2.08069518	     -9.35646593	      2.84331592	     -4.76272584	     -4.04957705	      6.15467176	    -11.23810765	      2.07810555	      9.77672510	    -13.13880087	     11.20610193	     -8.77354519	     -7.76803354	     -5.44716117	     -1.32471732	     -5.89815851
      0.51716667	     -1.99937354	     -1.29159256	      7.15424621	     -0.75566229	      1.02190629	      0.31957769	     20.13124045	      2.25409583	     -9.02696951	      2.24002717	     -5.28790597	     -4.80294914	      6.33999717	    -11.18333508	      1.94495942	      9.52768684	    -14.10400694	     11.21689860	     -8.46613383	     -7.58446848	     -5.46975382	     -1.14335293	     -5.87822195
      0.52133333	     -1.84603049	     -1.39874325	      7.17456958	     -0.74964203	      1.02171888	      0.31969942	     20.02833107	      2.43650276	     -8.66410145	      1.62095135	     -5.86075107	     -5.62192119	      7.07999147	    -11.18248631	      1.80227716	      9.22620042	    -15.10410940	     11.21407356	     -8.07499865	     -6.77903905	     -5.59258132	     -0.95452233	     -5.81881251
      0.52550000	     -1.87636514	     -1.48465737	      7.22663324	     -0.74362447	      1.02133582	      0.31977874	     20.14950987	      2.55527621	     -8.37429125	      0.91268163	     -6.40000518	     -6.34303681	      7.26623491	    -10.94291321	      1.71214431	      9.04121260	    -16.17916737	     11.13100809	     -7.87026116	     -6.51823464	     -5.45474154	     -0.84835853	     -5.84179149
      0.52966667	     -1.79038678	     -1.60539663	      7.26294940	     -0.73753747	      1.02114539	      0.31990595	     20.11663367	      2.73844245	     -8.03810094	      0.25960214	     -7.02789580	     -7.16972238	      7.46083319	    -10.80962568	      1.55414863	      8.72678211	    -17.27741599	     11.01369846	     -7.51080516	     -6.19255555	     -5.46101394	     -0.65085749	     -5.81773349
      0.53383333	     -1.65673171	     -1.73600033	      7.32379173	     -0.73141034	      1.02107588	      0.31999256	     20.02696289	      2.92658970	     -7.80199014	     -0.39087648	     -7.72558559	     -7.93212709	      9.42901498	    -10.71442135	      1.37066234	      8.44134055	    -18.37396222	     10.69619001	     -7.25862514	     -2.39735103	     -5.50982096	     -0.42936647	     -5.74568256
      0.53800000	     -1.61667985	     -1.83578492	      7.34177089	     -0.72533065	      1.02088962	      0.32018641	     20.06805633	      3.08435143	     -7.46043912	     -1.13342346	     -8.23343226	     -8.66958732	      9.41631835	    -10.46979321	      1.23171337	      8.06115191	    -19.57583799	     10.45418136	     -6.90978444	     -2.29283888	     -5.46652622	     -0.27589595	     -5.78708419
      0.54216667	     -1.51144852	     -1.94969277	      7.37787629	     -0.71920629	      1.02085817	      0.32037452	     20.01654629	      3.26277442	     -7.15896287	     -1.83416150	     -8.81116325	     -9.42284731	      9.40298690	    -10.28053072	      1.05439500	      7.67889698	    -20.77829396	     10.13693012	     -6.54659270	     -2.11615668	     -5.48987800	     -0.09010630	     -5.76095928
      0.54633333	     -1.41775135	     -2.06055121	      7.41755965	     -0.71307846	      1.02085197	      0.32058177	     19.97882942	      3.43534075	     -6.87689860	     -2.55037650	     -9.34028391	    -10.13366621	      9.38700677	    -10.04906837	      0.87188423	      7.28173610	    -22.02253095	      9.76086854	     -6.18335267	     -1.86039361	     -5.49959297	      0.08389706	     -5.73751008
      0.55050000	     -1.29567485	     -2.18245254	      7.45705132	     -0.70693957	      1.02094156	      0.32081691	     19.90611391	      3.62420070	     -6.61657557	     -3.26601404	     -9.82711544	    -10.80014131	      9.36242503	     -9.82077688	      0.66129930	      6.85706664	    -23.29908901	      9.27752988	     -5.82997863	     -1.53052764	     -5.54469876	      0.27413856	     -5.71116022
      0.55466667	     -1.17818121	     -2.29522671	      7.49453901	     -0.70079855	      1.02105362	      0.32108766	     19.83608371	      3.80518412	     -6.35976953	     -3.99050055	    -10.24844372	    -11.42709795	      9.32529841	     -9.56042499	      0.44778180	      6.40370488	    -24.60649349	      8.73331223	     -5.46323985	     -1.10290843	     -5.58057598	      0.44682859	     -5.67832092
      0.55883333	     -1.03052134	     -2.40544987	      7.54212499	     -0.69463960	      1.02129501	      0.32135483	     19.72485130	      3.98210915	     -6.15864591	     -4.71364467	    -10.56331589	    -11.92776185	      8.80958123	     -9.32362135	      0.22430186	      5.98299899	    -25.88331377	      7.85517712	     -5.28483420	      4.51233161	     -5.65559016	      0.60944114	     -5.64516834
      0.56300000	     -0.90291138	     -2.53344456	      7.58153636	     -0.68849482	      1.02151961	      0.32165652	     19.64645177	      4.17491236	     -5.98835547	     -5.46610164	    -10.77216871	    -12.34075189	      8.79550367	     -9.01623761	     -0.03247448	      5.49394096	    -27.25294422	      7.15664336	     -4.93721815	      4.58710948	     -5.70081512	      0.81075073	     -5.62151167
      0.56716667	     -0.77673573	     -2.64833265	      7.61923068	     -0.68234994	      1.02178622	      0.32200031	     19.55687319	      4.35866403	     -5.80851732	     -6.20330908	    -10.94411732	    -12.77212697	      8.75862438	     -8.68888585	     -0.28412761	      5.02165186	    -28.63489725	      6.31826163	     -4.65123783	      4.75386684	     -5.74685738	      0.97510406	     -5.57781428
      0.57133333	     -0.59331160	     -2.77158989	      7.67038031	     -0.67619399	      1.02220732	      0.32232502	     19.38971996	      4.55153743	     -5.69107721	     -6.92275461	    -10.96935247	    -13.02042485	      8.73362926	     -8.40502474	     -0.56322537	      4.56416076	    -30.00892583	      5.31796379	     -4.43692609	      4.85667323	     -5.85840447	      1.16342818	     -5.55410210
      0.57550000	     -0.44441561	     -2.88787587	      7.70833038	     -0.67006997	      1.02259215	      0.32270136	     19.26165877	      4.73929549	     -5.56392247	     -7.65247756	    -10.94921257	    -13.30147556	      8.69757920	     -8.04898563	     -0.84298857	      4.07968034	    -31.42794183	      4.28203497	     -4.20830833	      4.99542528	     -5.93466144	      1.32840156	     -5.51746490
